# xmcd
#
# Track frame offsets:
#	150
#	13947
#	28245
#	44446
#	59956
#
# Disc length: 1074 seconds
#
# Revision: 1
# Processed by: cddbd v1.5.1PL2 Copyright (c) Steve Scherf et al.
# Submitted via: audiograbber 1.83.01
#
DISCID=49043005
DTITLE=VESNA PISAROVIC - Singl
DYEAR=2005
DGENRE=Pop/Funk
TTITLE0=Probudi mi ljubav
TTITLE1=Ti si kriv
TTITLE2=Tako mi nedostajes
TTITLE3=Tako mi nedostajes (acoustic version)
TTITLE4=Tako mi nedostajes (club version
EXTD=
EXTT0=
EXTT1=
EXTT2=
EXTT3=
EXTT4=
PLAYORDER=
